<svg xmlns="http://www.w3.org/2000/svg" width="23" height="13" viewBox="0 0 23 13">
    <g id="Combined_Shape" fill="#96999f" stroke-miterlimit="10">
        <path d="M 17.35919952392578 12.84959983825684 C 15.76201057434082 12.84959983825684 14.15040016174316 11.97735023498535 14.15040016174316 10.02869987487793 L 14.15040016174316 9.992700576782227 C 14.15040016174316 9.061400413513184 14.47817039489746 8.331620216369629 15.12460041046143 7.823630332946777 C 15.77288055419922 7.314180374145508 16.7475700378418 7.044900417327881 17.94330024719238 7.044900417327881 C 18.99472045898438 7.044900417327881 19.71821022033691 7.242420196533203 20.28726959228516 7.435640335083008 L 20.48550033569336 7.50294017791748 L 20.48550033569336 7.293600082397461 L 20.48550033569336 7.129800319671631 C 20.48550033569336 5.888570308685303 19.6865406036377 5.205000400543213 18.23579978942871 5.205000400543213 C 17.52531051635742 5.205000400543213 16.88383102416992 5.296070098876953 16.27470016479492 5.4834303855896 C 16.12894058227539 5.531970024108887 16.03631019592285 5.548799991607666 15.91740036010742 5.548799991607666 C 15.35654067993164 5.548799991607666 14.91720008850098 5.121320247650146 14.91720008850098 4.575600147247314 C 14.91720008850098 4.165470123291016 15.17851066589355 3.79265022277832 15.56743049621582 3.64788031578064 C 16.49151039123535 3.303330183029175 17.43824005126953 3.149700164794922 18.63719940185547 3.149700164794922 C 20.06141090393066 3.149700164794922 21.13778114318848 3.500860214233398 21.83640098571777 4.193430423736572 C 22.50920104980469 4.861920356750488 22.85040092468262 5.868370056152344 22.85040092468262 7.184700012207031 L 22.85040092468262 11.60459995269775 C 22.85040092468262 12.26236057281494 22.32290077209473 12.77760028839111 21.64949989318848 12.77760028839111 C 20.90905952453613 12.77760028839111 20.46660041809082 12.27363014221191 20.46660041809082 11.78639984130859 L 20.46660041809082 11.76749992370605 L 20.46660041809082 11.37909984588623 L 20.20553970336914 11.66668033599854 C 19.48294067382812 12.46265983581543 18.55188941955566 12.84959983825684 17.35919952392578 12.84959983825684 Z M 18.60120010375977 8.392800331115723 C 17.30690956115723 8.392800331115723 16.53420066833496 8.950180053710938 16.53420066833496 9.883800506591797 L 16.53420066833496 9.9197998046875 C 16.53420066833496 10.72659015655518 17.18762969970703 11.24790000915527 18.19890022277832 11.24790000915527 C 19.56641006469727 11.24790000915527 20.52149963378906 10.48600006103516 20.52149963378906 9.395100593566895 L 20.52149963378906 8.905500411987305 L 20.52149963378906 8.809040069580078 L 20.43373107910156 8.769020080566406 C 19.90167999267578 8.526410102844238 19.25086975097656 8.392800331115723 18.60120010375977 8.392800331115723 Z M 11.63070011138916 12.84959983825684 C 11.06991004943848 12.84959983825684 10.63696002960205 12.54800987243652 10.3786506652832 11.97743988037109 L 9.498109817504883 9.984280586242676 L 9.458620071411133 9.894900321960449 L 9.360899925231934 9.894900321960449 L 3.582900285720825 9.894900321960449 L 3.485080242156982 9.894900321960449 L 3.445640325546265 9.984410285949707 L 2.526740312576294 12.06970977783203 C 2.304880380630493 12.56504058837891 1.869290232658386 12.84959983825684 1.332000255584717 12.84959983825684 C 0.6692003011703491 12.84959983825684 0.150000274181366 12.34226036071777 0.150000274181366 11.69460010528564 C 0.150000274181366 11.51411056518555 0.2279502749443054 11.32285976409912 0.3042102754116058 11.15956974029541 L 4.882070064544678 1.168580174446106 C 5.186780452728271 0.5119702219963074 5.738070487976074 0.15000019967556 6.434100151062012 0.15000019967556 L 6.603300094604492 0.15000019967556 C 7.297970294952393 0.15000019967556 7.828200340270996 0.5023902058601379 8.136670112609863 1.169090151786804 L 12.71382999420166 11.15857982635498 C 12.80790996551514 11.3590202331543 12.84959983825684 11.51284027099609 12.84959983825684 11.65859985351562 C 12.84959983825684 12.32645034790039 12.31420040130615 12.84959983825684 11.63070011138916 12.84959983825684 Z M 6.471900463104248 3.013870239257812 L 6.334320068359375 3.330530166625977 L 4.514520168304443 7.519130229949951 L 4.423380374908447 7.72890043258667 L 4.652100086212158 7.72890043258667 L 8.29170036315918 7.72890043258667 L 8.520420074462891 7.72890043258667 L 8.429280281066895 7.519130229949951 L 6.609480381011963 3.330530166625977 L 6.471900463104248 3.013870239257812 Z" stroke="none"/>
        <path d="M 17.35919952392578 12.69960021972656 C 18.50720024108887 12.69960021972656 19.40191078186035 12.32875061035156 20.09448051452637 11.56585025787354 L 20.61660003662109 10.99071025848389 L 20.61660003662109 11.78639984130859 C 20.61660003662109 12.19990062713623 21.00295066833496 12.62760066986084 21.64949989318848 12.62760066986084 C 22.23879051208496 12.62760066986084 22.70039939880371 12.1782398223877 22.70039939880371 11.60459995269775 L 22.70039939880371 7.184700012207031 C 22.70039939880371 5.909780025482178 22.37409973144531 4.939130306243896 21.73079109191895 4.299950122833252 C 21.06126976013184 3.636230230331421 20.02044105529785 3.299700260162354 18.63719940185547 3.299700260162354 C 17.45695114135742 3.299700260162354 16.52638053894043 3.450420141220093 15.61975002288818 3.788450241088867 C 15.28925037384033 3.911480188369751 15.06720066070557 4.227810382843018 15.06720066070557 4.575600147247314 C 15.06720066070557 5.037209987640381 15.44064998626709 5.398800373077393 15.91740036010742 5.398800373077393 C 16.00607109069824 5.398800373077393 16.08118057250977 5.389780044555664 16.22393035888672 5.342190265655518 L 16.23060035705566 5.340060234069824 C 16.85424041748047 5.148240089416504 17.51013946533203 5.055000305175781 18.23579978942871 5.055000305175781 C 19.78326988220215 5.055000305175781 20.63549995422363 5.791840076446533 20.63549995422363 7.129800319671631 L 20.63549995422363 7.7122802734375 L 20.23904991149902 7.577670097351074 C 19.68159103393555 7.388390064239502 18.97289085388184 7.194900035858154 17.94330024719238 7.194900035858154 C 16.78150939941406 7.194900035858154 15.83887004852295 7.453090190887451 15.21728038787842 7.941570281982422 C 14.60888004302979 8.419670104980469 14.30040073394775 9.109769821166992 14.30040073394775 9.992700576782227 L 14.30040073394775 10.02869987487793 C 14.30040073394775 10.88908004760742 14.61513996124268 11.56793022155762 15.23587036132812 12.04638004302979 C 15.78238010406494 12.46761035919189 16.53646087646484 12.69960021972656 17.35919952392578 12.69960021972656 M 18.60120010375977 8.242799758911133 C 19.27189064025879 8.242799758911133 19.94478988647461 8.381210327148438 20.49596977233887 8.632539749145508 L 20.67150115966797 8.712580680847168 L 20.67150115966797 9.395100593566895 C 20.67150115966797 10.57431983947754 19.65472984313965 11.39790058135986 18.19890022277832 11.39790058135986 C 17.11347007751465 11.39790058135986 16.38420104980469 10.80389976501465 16.38420104980469 9.9197998046875 L 16.38420104980469 9.883800506591797 C 16.38420104980469 8.856260299682617 17.21298980712891 8.242799758911133 18.60120010375977 8.242799758911133 M 11.63070011138916 12.69960021972656 C 12.23008060455322 12.69960021972656 12.69960021972656 12.24234008789062 12.69960021972656 11.65859985351562 C 12.69960021972656 11.53598022460938 12.66229057312012 11.40181064605713 12.57746982574463 11.22107028961182 L 8.000530242919922 1.232080221176147 C 7.714370250701904 0.6136001944541931 7.244270324707031 0.3000001907348633 6.603300094604492 0.3000001907348633 L 6.434100151062012 0.3000001907348633 C 5.790630340576172 0.3000001907348633 5.300890445709229 0.6224101781845093 5.018430233001709 1.231070160865784 L 0.4401202797889709 11.22304058074951 C 0.3708302676677704 11.37141036987305 0.3000002801418304 11.54345989227295 0.3000002801418304 11.69460010528564 C 0.3000002801418304 12.25815010070801 0.7533102631568909 12.69960021972656 1.332000255584717 12.69960021972656 C 1.814520239830017 12.69960021972656 2.190330266952515 12.45382976531982 2.389470338821411 12.0092306137085 L 3.38726019859314 9.744899749755859 L 9.556340217590332 9.744899749755859 L 10.51529979705811 11.91557025909424 C 10.75082015991211 12.43581008911133 11.12610054016113 12.69960021972656 11.63070011138916 12.69960021972656 M 6.471900463104248 2.637440204620361 L 8.749130249023438 7.878900051116943 L 4.1946702003479 7.878900051116943 L 6.471900463104248 2.637440204620361 M 17.35919952392578 12.99960041046143 C 15.6870002746582 12.99960041046143 14.00040054321289 12.08160018920898 14.00040054321289 10.02869987487793 L 14.00040054321289 9.992700576782227 C 14.00040054321289 8.024399757385254 15.43680000305176 6.894900321960449 17.94330024719238 6.894900321960449 C 19.01700019836426 6.894900321960449 19.75500106811523 7.096500396728516 20.33550071716309 7.293600082397461 L 20.33550071716309 7.129800319671631 C 20.33550071716309 5.968800067901611 19.60919952392578 5.355000019073486 18.23579978942871 5.355000019073486 C 17.53919982910156 5.355000019073486 16.91279983520508 5.444100379943848 16.31879997253418 5.626800060272217 C 16.15950012207031 5.679900169372559 16.05060005187988 5.698800086975098 15.91740036010742 5.698800086975098 C 15.2721004486084 5.698800086975098 14.7672004699707 5.205600261688232 14.7672004699707 4.575600147247314 C 14.7672004699707 4.103100299835205 15.06780052185059 3.673800230026245 15.51510047912598 3.507300138473511 C 16.45650100708008 3.15630030632019 17.41950035095215 2.999700307846069 18.63719940185547 2.999700307846069 C 20.1023998260498 2.999700307846069 21.21479988098145 3.366000175476074 21.9419994354248 4.086900234222412 C 22.64400100708008 4.78439998626709 23.00040054321289 5.826600074768066 23.00040054321289 7.184700012207031 L 23.00040054321289 11.60459995269775 C 23.00040054321289 12.34710025787354 22.40640068054199 12.92759990692139 21.64949989318848 12.92759990692139 C 20.81520080566406 12.92759990692139 20.31660079956055 12.34800052642822 20.31660079956055 11.78639984130859 L 20.31660079956055 11.76749992370605 C 19.56330108642578 12.59730052947998 18.59490013122559 12.99960041046143 17.35919952392578 12.99960041046143 Z M 18.60120010375977 8.542799949645996 C 17.38260078430176 8.542799949645996 16.68420028686523 9.031499862670898 16.68420028686523 9.883800506591797 L 16.68420028686523 9.9197998046875 C 16.68420028686523 10.63619995117188 17.27820014953613 11.097900390625 18.19890022277832 11.097900390625 C 19.4778003692627 11.097900390625 20.37150001525879 10.39770030975342 20.37150001525879 9.395100593566895 L 20.37150001525879 8.905500411987305 C 19.86030006408691 8.67240047454834 19.231201171875 8.542799949645996 18.60120010375977 8.542799949645996 Z M 11.63070011138916 12.99960041046143 C 11.00699996948242 12.99960041046143 10.52640056610107 12.66750049591064 10.24200057983398 12.03929996490479 L 9.360899925231934 10.04489994049072 L 3.582900285720825 10.04489994049072 L 2.664000272750854 12.13020038604736 C 2.416500329971313 12.68280029296875 1.930500268936157 12.99960041046143 1.332000255584717 12.99960041046143 C 0.5850002765655518 12.99960041046143 2.716064386731887e-07 12.42630004882812 2.716064386731887e-07 11.69460010528564 C 2.716064386731887e-07 11.48400020599365 0.08550027012825012 11.27340030670166 0.1683002710342407 11.09609985351562 L 4.745700359344482 1.10610020160675 C 5.076900482177734 0.3924002051353455 5.676300048828125 2.052307195299363e-07 6.434100151062012 2.052307195299363e-07 L 6.603300094604492 2.052307195299363e-07 C 7.361100196838379 2.052307195299363e-07 7.938000202178955 0.3825002014636993 8.272800445556641 1.10610020160675 L 12.85020065307617 11.09609985351562 C 12.95370006561279 11.31659984588623 12.99960041046143 11.49030017852783 12.99960041046143 11.65859985351562 C 12.99960041046143 12.41100025177002 12.39840030670166 12.99960041046143 11.63070011138916 12.99960041046143 Z M 6.471900463104248 3.390300273895264 L 4.652100086212158 7.578900337219238 L 8.29170036315918 7.578900337219238 L 6.471900463104248 3.390300273895264 Z" stroke="none" fill="#fff"/>
    </g>
</svg>
