<svg version="1.1" id="Layer_1" xmlns="http://www.w3.org/2000/svg" xmlns:xlink="http://www.w3.org/1999/xlink" x="0px" y="0px"
    width="100%" viewBox="0 0 178 100" enable-background="new 0 0 178 100" xml:space="preserve">
<path fill="#000000" opacity="000000" stroke="none"
    d="
M72.000000,101.000000
	C48.382496,101.000000 24.764994,101.000000 1.073746,101.000000
	C1.073746,67.785210 1.073746,34.570221 1.073746,1.000000
	C14.018741,1.000000 27.040712,1.000000 40.532528,1.370009
	C42.609375,3.934199 43.939037,6.415860 45.867756,8.276565
	C59.863708,21.778940 69.971786,37.300800 72.135818,57.156109
	C72.349525,59.116940 73.151894,61.013615 73.964561,63.972301
	C86.542046,38.391621 107.078033,25.820250 135.530899,22.363087
	C131.458405,16.684181 128.018112,11.858371 124.544624,7.056574
	C123.065514,5.011842 121.516983,3.017335 120.000000,1.000000
	C139.623123,1.000000 159.246231,1.000000 178.934677,1.000000
	C178.934677,34.215870 178.934677,67.431900 178.934677,101.000000
	C166.314606,101.000000 153.625961,101.000000 140.316925,100.624702
	C141.831345,94.436630 143.811020,88.561150 146.130661,82.823090
	C152.529083,66.995407 160.521896,52.095177 171.467255,38.838188
	C173.197540,36.742477 173.433975,33.413410 174.468826,30.334032
	C169.379578,29.809542 165.415329,28.843891 161.535538,29.109854
	C151.524826,29.796101 141.454758,30.467821 131.586533,32.175026
	C117.869591,34.548065 105.843674,40.697128 95.730400,50.536068
	C81.457367,64.421928 75.265312,81.996010 72.000000,101.000000
M32.496704,29.000109
	C22.888714,29.000109 13.280725,29.000109 1.871479,29.000109
	C23.526190,50.140953 41.001442,72.596451 53.169064,100.284187
	C54.462688,97.313515 55.314529,95.493324 56.057724,93.629814
	C64.159599,73.314781 64.820175,53.435738 52.714352,34.228168
	C50.508831,30.728800 48.111664,28.322016 43.483078,28.918018
	C40.204285,29.340212 36.827316,28.999985 32.496704,29.000109
z"/>
    <path fill="#6D6E72" opacity="1.000000" stroke="none"
        d="
M72.468658,101.000000
	C75.265312,81.996010 81.457367,64.421928 95.730400,50.536068
	C105.843674,40.697128 117.869591,34.548065 131.586533,32.175026
	C141.454758,30.467821 151.524826,29.796101 161.535538,29.109854
	C165.415329,28.843891 169.379578,29.809542 174.468826,30.334032
	C173.433975,33.413410 173.197540,36.742477 171.467255,38.838188
	C160.521896,52.095177 152.529083,66.995407 146.130661,82.823090
	C143.811020,88.561150 141.831345,94.436630 139.848267,100.624702
	C117.645775,101.000000 95.291542,101.000000 72.468658,101.000000
z"/>
    <path fill="#EB3D30" opacity="1.000000" stroke="none"
        d="
M119.531342,1.000000
	C121.516983,3.017335 123.065514,5.011842 124.544624,7.056574
	C128.018112,11.858371 131.458405,16.684181 135.530899,22.363087
	C107.078033,25.820250 86.542046,38.391621 73.964561,63.972301
	C73.151894,61.013615 72.349525,59.116940 72.135818,57.156109
	C69.971786,37.300800 59.863708,21.778940 45.867756,8.276565
	C43.939037,6.415860 42.609375,3.934199 41.001186,1.370009
	C67.020897,1.000000 93.041786,1.000000 119.531342,1.000000
z"/>
    <path fill="#ED8B6A" opacity="1.000000" stroke="none"
        d="
M32.995438,29.000097
	C36.827316,28.999985 40.204285,29.340212 43.483078,28.918018
	C48.111664,28.322016 50.508831,30.728800 52.714352,34.228168
	C64.820175,53.435738 64.159599,73.314781 56.057724,93.629814
	C55.314529,95.493324 54.462688,97.313515 53.169064,100.284187
	C41.001442,72.596451 23.526190,50.140953 1.871479,29.000109
	C13.280725,29.000109 22.888714,29.000109 32.995438,29.000097
z"/>
</svg>