<svg xmlns="http://www.w3.org/2000/svg" xmlns:xlink="http://www.w3.org/1999/xlink" width="279" height="296" viewBox="0 0 279 296">
    <defs>
        <linearGradient id="linear-gradient" x1="0.813" y1="0.776" x2="0.347" y2="0.368" gradientUnits="objectBoundingBox">
            <stop offset="0" stop-color="#fff"/>
            <stop offset="1" stop-color="#dbeaff"/>
        </linearGradient>
    </defs>
    <g id="_Group_" transform="translate(0)">
        <path id="_Path_" d="M176.367,215.742s113.924-37.32,101.717-60.036-65.1-20.283-58.589-39.754,73.237-43.81,39.059-68.15S124.288-10.612,100.69,3.18s0,40.565-29.295,41.376S-5.91,57.537.6,89.178s92.766,54.357,74.864,70.583S33.149,252.25,176.367,215.742Z" transform="translate(0 70.476)" fill="url(#linear-gradient)"/>
        <rect id="_Rectangle_" width="60.121" height="62.019" transform="translate(93 118.4)" fill="#4f64b1"/>
        <path id="_Path_2" d="M105.212,4.894C105.212,2.191,81.66,0,52.606,0S0,2.191,0,4.894c0,2.262,16.518,4.16,38.928,4.721-2.431.942-3.857,2.079-3.857,3.305,0,3.244,9.95,5.873,22.225,5.873s22.225-2.629,22.225-5.873c0-1.356-1.757-2.6-4.678-3.6C92.766,8.545,105.212,6.857,105.212,4.894Z" transform="translate(80.788 264.051)" fill="#b0d0ff"/>
        <path id="_Path_3" d="M1.292,0,0,13.156l6.135.94,4.2-12.372L1.292,0Z" transform="translate(133.394 259.352)" fill="#fed4d5"/>
        <path id="_Path_4" d="M35.7,39.786S21.131,64.678,16.207,65.7,0,57.537,0,57.537L2.462,0S13.54,1.224,15.592,8.365s.615,38.154.615,38.154l16.618-9.794Z" transform="translate(153.121 42.286)" fill="#d67432"/>
        <rect id="_Rectangle_2" width="75.152" height="8.457" transform="translate(91.121 201.092)" fill="#4f64b1"/>
        <rect id="_Rectangle_3" width="7.515" height="88.33" transform="translate(161.576 179.479)" fill="#859ce8"/>
        <rect id="_Rectangle_4" width="7.515" height="88.33" transform="translate(88.303 179.479)" fill="#859ce8"/>
        <path id="_Path_5" d="M82.746,29.13a10.957,10.957,0,0,0,.86-4.248V11.126A11.2,11.2,0,0,0,72.336,0H11.27A11.2,11.2,0,0,0,0,11.126V24.882A10.956,10.956,0,0,0,.86,29.13Z" transform="translate(79.848 97.727)" fill="#859ce8"/>
        <path id="_Path_6" d="M97.363,14.1a9.265,9.265,0,0,0,1.274-4.628A9.518,9.518,0,0,0,89.059.009L9.579,0A9.518,9.518,0,0,0,0,9.456a9.265,9.265,0,0,0,1.273,4.628Z" transform="translate(80.788 170.083)" fill="#859ce8"/>
        <path id="_Path_7" d="M12.66,4.582a5.6,5.6,0,0,1,5.426-3.36c4.22,0,20.5-1.222,20.5-1.222L54.255,1.222s20.8,6.72,21.7,9.469-3.014,37.877-5.124,43.07S67.216,82.78,67.216,82.78L0,110.883S7.234,76.06,8.741,67.2,12.66,4.582,12.66,4.582Z" transform="translate(90.182 37.587)" fill="#e8863d"/>
        <g id="_Group_2" transform="translate(89.242 37.587)" opacity="0.25" style="mix-blend-mode: overlay;isolation: isolate">
            <path id="_Path_8" d="M9.667,19.422S25.8,34.066,37.264,30.43c1.1-9.461,1.82-18.438,1.371-19.771-.923-2.741-22.16-9.441-22.16-9.441L.47,0,0,.034Z" transform="translate(39.116 0.145)" fill="#231f20"/>
            <path id="_Path_9" d="M22.058,73.246c3.693-5.076,26.674-18.678,26.674-18.678L54.272,29.8s-22.365,8.121-26.264-.2S30.47,9.089,20.416,4.623A40.591,40.591,0,0,1,12.752,0c-.588,12.267-2.533,51.306-3.827,58.729C7.387,67.561,0,102.279,0,102.279l35.039-14.3C27.96,82.911,19.9,76.21,22.058,73.246Z" transform="translate(0.19 8.414)" fill="#231f20"/>
        </g>
        <path id="_Path_10" d="M51.817,5.325S62.18,21.447,60.961,35.439s-24.994,85.78-24.994,85.78L25.3,118.786s11.583-77.567,4.877-84.259S0,22.664,0,22.664,22.251-13.23,51.817,5.325Z" transform="translate(108.97 142.832)" fill="#2f3655"/>
        <g id="_Group_3" transform="translate(123.061 82.692)">
            <path id="_Path_11" d="M.518,0S3.007,5.13,0,7.9l40.646-.1L40.517.41Z" transform="translate(1.275 29.671)" fill="#fff"/>
            <path id="_Path_12" d="M.518,0S3.007,5.13,0,7.9l40.646-.1L40.517.41Z" transform="translate(0.653 2.996)" fill="#fff"/>
            <path id="_Path_13" d="M0,0V3.283H41.139v6.976H0v3.283H45.416V0Z" transform="translate(0.031 0.123)" fill="#4f64b1"/>
            <g id="_Group_4" transform="translate(3.19 4.419)">
                <rect id="_Path_15" width="36.473" height="0.657" transform="translate(0.107 0.123)" fill="#162659"/>
            </g>
            <g id="_Group_5" transform="translate(3.19 6.313)">
                <rect id="_Path_17" width="36.473" height="0.657" transform="translate(0.107 0.155)" fill="#162659"/>
            </g>
            <g id="_Group_6" transform="translate(3.19 8.208)">
                <rect id="_Path_19" width="36.473" height="0.616" transform="translate(0.107 0.098)" fill="#162659"/>
                <rect id="_Path_20" width="36.473" height="0.616" transform="translate(0.651 23.259)" fill="#a29b00"/>
                <rect id="_Path_21" width="36.473" height="0.616" transform="translate(0.651 25.182)" fill="#a29b00"/>
                <rect id="_Path_22" width="36.473" height="0.616" transform="translate(0.651 27.029)" fill="#a29b00"/>
            </g>
            <path id="_Path_23" d="M.518,0S3.007,5.13,0,7.9l40.646-.1L40.516.41Z" transform="translate(5.837 16.539)" fill="#fff"/>
            <path id="_Path_24" d="M0,0V3.283H41.139V10.26H0v3.283H45.416V0Z" transform="translate(5.215 13.666)" fill="#00f7e5"/>
            <g id="_Group_7" transform="translate(8.295 17.993)">
                <rect id="_Path_25" width="36.473" height="0.657" transform="translate(0.187 0.09)" fill="#162659"/>
            </g>
            <g id="_Group_8" transform="translate(8.295 19.888)">
                <rect id="_Path_26" width="36.473" height="0.657" transform="translate(0.187 0.121)" fill="#162659"/>
            </g>
            <g id="_Group_9" transform="translate(8.295 21.782)">
                <rect id="_Path_27" width="36.473" height="0.657" transform="translate(0.187 0.071)" fill="#162659"/>
            </g>
            <path id="_Path_28" d="M0,0V3.283H41.139V10.26H0v3.283H45.416V0Z" transform="translate(0.653 26.798)" fill="#859ce8"/>
        </g>
        <path id="_Path_29" d="M0,4.374l9.093,12.54s5.28-2.333,4.986-4.374S4.986,0,4.986,0Z" transform="translate(219.818 220.825)" fill="#fed4d5"/>
        <path id="_Path_30" d="M.263,7.76S6.953,6.524,7.409,3.433,7.1-.584,9.233.343s11.4,1.545,16.571.773.456,2.318-.608,3.245S3.3,14.1,3.3,14.1-1.1,12.859.263,7.76Z" transform="translate(226.394 228.343)" fill="#2f3655"/>
        <path id="_Path_31" d="M36.372,1.633l3.082,2.654s-15,18.987-15.823,19.191S0,21.437,0,21.437L.822,4.9,4.11,0S22.4,7.35,22.4,6.737,36.372,1.633,36.372,1.633Z" transform="translate(155 60.14)" fill="#fff"/>
        <path id="_Path_32" d="M39.938,6.963,15.894,0,0,24.986l24.452,6.963,16.913-6.963L55.424,1.024,39.938,6.963Z" transform="translate(140.909 63.898)" fill="#859ce8"/>
        <path id="_Path_33" d="M12.1,7.517c-.6,2.3-3.774,3.418-7.087,2.5S-.5,6.482.1,4.182,4.287-.731,7.6.19,12.7,5.217,12.1,7.517Z" transform="translate(129.636 270.629)" fill="#2f3655"/>
        <path id="_Path_34" d="M.909,7.815S2.078,1.223,7.046.324s11.1,0,9.644,3.6-8.475,2.4-8.475,2.4S2.955,13.509.909,12.011.909,7.815.909,7.815Z" transform="translate(147.485 67.657)" fill="#fed4d5"/>
        <path id="_Path_35" d="M15.92,1.761s8.546-6.026,12.82,4.219S26.6,50.274,26.6,50.274l39.68-20.088,4.171,6.73S25.687,89.446,7.984,69.86,6.153,5.979,15.92,1.761Z" transform="translate(82.667 40.406)" fill="#fb9844"/>
        <path id="_Path_36" d="M27.673,16.488l1.448-4.477s-4.344-1.832-5.792-4.274S18.778.206,11.952,0-2.114,10.179.575,18.319,13.4,20.354,13.4,20.354,26.225,22.8,27.673,16.488Z" transform="translate(133.394)" fill="#2f3655"/>
        <path id="_Path_37" d="M13.3,0,0,15.477S4.949,37.454,14.847,35.6s4.33-10.834,4.33-10.834l6.186-9.286Z" transform="translate(123.061 21.613)" fill="#fed4d5"/>
        <path id="_Path_38" d="M14.839,5.8l-.062-.018L0,30.07l16.241-6.65L30.061,0,14.839,5.8Z" transform="translate(165.333 65.778)" fill="#4f64b1"/>
        <path id="_Path_39" d="M30.721,119.34c2.207-14.743,6.864-44.331,11.309-62.824,3.6-14.963,10.847-28.908,16.213-38.124A72.768,72.768,0,0,0,51.9,5.3C22.287-13.156,0,22.537,0,22.537s23.508,5.142,30.224,11.8-4.885,83.787-4.885,83.787Z" transform="translate(109.909 142.832)" fill="#231f20" opacity="0.46" style="mix-blend-mode: overlay;isolation: isolate"/>
        <path id="_Path_40" d="M15.03,15.556,3.3,0,0,3.971c.1,7.584.813,24.893,5.07,31.737,9.226-1.99,3.945-10.819,3.945-10.819Z" transform="translate(133.394 21.613)" fill="#231f20" style="mix-blend-mode: overlay;isolation: isolate"/>
        <g id="_Group_10" transform="translate(10.333 123.098)">
            <path id="_Path_41" d="M25.046,78.1c-3.668-11.5-10.393-16.346-6.113-22.4S28.1,45.4,23.212,39.351s-11-12.108-6.113-17.556S10.374,0,10.374,0s4.891,13.319-1.223,16.346S3.038,31.481,6.706,37.535,1.815,45.4,2.427,53.275,7.317,66.593,6.706,70.226C6.376,72.186,3.021,75.376,0,77.9c9.223,5.3,17.691,10.2,23.172,14.729C25.263,87.731,26.443,82.476,25.046,78.1Z" transform="translate(38.571 0.137)" fill="#b0d0ff"/>
            <path id="_Path_42" d="M38.718,58.414C43.773,43.4,85.063,25.468,87.43,6.886c-3.858-3-8.458-5.823-12.847-6.59C64.19-1.52,50.129,5.744,42.182,2.717c0,0,6.725,18.767,23.842,20.583,0,0-6.725,2.422-21.4-7.265s-32.4-4.843-32.4-4.843,1.223,11.5,13.449,19.373,25.676,5.449,25.676,5.449S37.9,42.673,25.676,37.225,1.834,49.333,1.834,49.333s13.449,11.5,23.231,10.292c0,0-17.729,6.054-21.4,18.767S0,97.159,0,97.159s14.672,8.475,27.51-3.632,34.235-9.081,34.235-9.081-6.113,1.211-9.17,9.686c0,0,11.615,9.686,31.178,4.843a69.949,69.949,0,0,0,11.727-3.91C80.482,75.556,32.492,76.91,38.718,58.414Z" transform="translate(171.211 4.685)" fill="#b0d0ff"/>
            <path id="_Path_43" d="M16.6,60.292c1.791-3.765,3.572-8.58,2.179-10.649-2.445-3.632-7.336-10.292-6.113-15.135s7.947-8.476,4.279-13.924S15.727,0,15.727,0,7.168,7.87,6.557,15.74s3.057,7.265-.611,10.9-8.559,9.081-4.279,16.951a10.39,10.39,0,0,1,.814,8.349C7.145,54.827,11.945,57.61,16.6,60.292Z" transform="translate(19.769 16.483)" fill="#b0d0ff"/>
            <path id="_Path_44" d="M12.175,39.436c1.57-2.788,3.623-7.029,1.665-14.009C10.783,14.529,11.395,4.843,17.508,0c0,0-17.117,1.816-15.283,16.346A21.378,21.378,0,0,1,0,29.467,94.708,94.708,0,0,0,12.175,39.436Z" transform="translate(0.259 22.537)" fill="#b0d0ff"/>
        </g>
        <path id="_Path_45" d="M32.815,1.474A85.463,85.463,0,0,1,15.29.392C6.829-1.231-1.329,2.555.182,4.989S8.34,2.285,32.815,1.474Z" transform="translate(189.758 171.962)" fill="#231f20" style="mix-blend-mode: overlay;isolation: isolate"/>
        <path id="_Path_46" d="M8.451,4.765S6.5-2.1,2.383.648s0,7.842,0,7.842L0,12.215S8.667,12.411,8.451,4.765Z" transform="translate(184.121 70.476)" fill="#fed4d5"/>
        <path id="_Path_47" d="M29.121,0S-1.993,11.264.1,22.214,29.121,0,29.121,0Z" transform="translate(186.939 199.213)" fill="#231f20" style="mix-blend-mode: overlay;isolation: isolate"/>
        <path id="_Path_48" d="M2.447,11.453S-2.392,3.617,1.539,2.11,6.378,7.535,6.378,7.535,11.821,5.124,12.123,0c0,0,10.584,10.248,15.119,3.918,0,0-2.721,25.318-13.305,23.208S2.447,18.687,2.447,11.453Z" transform="translate(133.394 13.156)" fill="#fed4d5"/>
        <ellipse id="_Path_49" cx="2.818" cy="1.41" rx="2.818" ry="1.41" transform="translate(142.788 25.371)" fill="#231f20" style="mix-blend-mode: overlay;isolation: isolate"/>
        <ellipse id="_Path_50" cx="1.879" cy="0.94" rx="1.879" ry="0.94" transform="translate(154.061 26.311)" fill="#231f20" style="mix-blend-mode: overlay;isolation: isolate"/>
        <path id="_Path_51" d="M16.231,68.468C-5.453,64.756,12.524,12.608,17.208,0a9.969,9.969,0,0,0-1.382.776C6.116,5-9.662,49.357,7.937,68.971c6.113,6.812,15.41,4.807,24.942-.7A48.129,48.129,0,0,1,16.231,68.468Z" transform="translate(82.667 41.346)" fill="#231f20" opacity="0.46" style="mix-blend-mode: overlay;isolation: isolate"/>
        <path id="_Path_52" d="M142.788,109.373S80.385,2.366,66.107.338,18.377,5.2,4.912,26.675,8.171,63.558,24.9,62.75,64.062,47.758,64.062,47.758l70.975,66.883Z" transform="translate(86.424 114.641)" fill="#2f3655"/>
        <path id="_Path_53" d="M65.15,8.8S29.11,25.55,17.5,24.027C9.189,22.936,5.735,8.245,4.444,0-8.141,21.126,8.336,36.194,24.836,35.393c16.7-.81,39.1-15.022,39.1-15.022l70.85,67.019,4.249-2.9Z" transform="translate(86.424 141.892)" fill="#231f20" opacity="0.46" style="mix-blend-mode: overlay;isolation: isolate"/>
        <path id="_Path_54" d="M4.506,61.079s7-5.14,4.083-10.281-7-11.49-4.958-16.933S15.3,29.028,11.213,22.98,2.756,14.816,3.631,10.885,8.005,0,8.005,0-2.786,6.955,1.589,13.607,11.213,23.887,7.714,25.4s-9.333,6.047-7.291,13S10.922,48.077,4.506,61.079Z" transform="translate(55.424 140.952)" fill="#231f20" style="mix-blend-mode: overlay;isolation: isolate"/>
        <path id="_Path_55" d="M9.719,0S8.7,10.328,9.514,15.391s-8.19,7.291-5.938,13.771,6.757,8.506,6.757,12.556S9.1,46.984,9.1,46.984s1.433-5.063-1.433-7.291S-2.566,29.365.915,24.5s7.371-6.278,6.757-9.923S8.081,1.823,9.719,0Z" transform="translate(31.939 147.53)" fill="#231f20" style="mix-blend-mode: overlay;isolation: isolate"/>
        <path id="_Path_56" d="M7.515,0S-1.021,5.2.1,10.817,5.943,22.258,1.9,27.251c0,0,6.065-2.08,2.92-11.025S7.515,0,7.515,0Z" transform="translate(15.03 147.53)" fill="#231f20" style="mix-blend-mode: overlay;isolation: isolate"/>
        <path id="_Path_57" d="M43.212,13.208c-.9,0-10.5,2.1-18.305-4.5S0,0,0,0,9.9,9.906,23.407,13.508,43.212,13.208,43.212,13.208Z" transform="translate(199.152 142.832)" fill="#231f20" style="mix-blend-mode: overlay;isolation: isolate"/>
        <path id="_Path_58" d="M29.121,11.276S23.417.332,15.912.995A66.015,66.015,0,0,1,0,0,67.444,67.444,0,0,0,16.212,5.97C25.218,7.96,29.121,11.276,29.121,11.276Z" transform="translate(228.273 132.495)" fill="#231f20" style="mix-blend-mode: overlay;isolation: isolate"/>
        <path id="_Path_59" d="M18.788,0S-2.422,1.268.229,3.3,18.788,0,18.788,0Z" transform="translate(242.364 217.067)" fill="#231f20" style="mix-blend-mode: overlay;isolation: isolate"/>
    </g>
</svg>
