<svg id="Search_Copy_2" data-name="Search Copy 2" xmlns="http://www.w3.org/2000/svg" width="24" height="24" viewBox="0 0 24 24">
    <rect id="Rectangle" width="24" height="24" fill="none"/>
    <path id="Combined_Shape" data-name="Combined Shape" d="M12.09,16.883a3.115,3.115,0,0,1,.154-.969L5.482,12.06a3.126,3.126,0,1,1,0-4.109L12.243,4.1a3.134,3.134,0,1,1,.618,1.086L6.1,9.037a3.132,3.132,0,0,1,0,1.936l6.762,3.855a3.125,3.125,0,1,1-.772,2.055Zm1.251,0a1.876,1.876,0,1,0,1.876-1.876A1.877,1.877,0,0,0,13.341,16.883ZM1.251,10.005A1.876,1.876,0,1,0,3.127,8.13,1.878,1.878,0,0,0,1.251,10.005Zm12.09-6.879a1.876,1.876,0,1,0,1.876-1.876A1.877,1.877,0,0,0,13.341,3.127Z" transform="translate(2.816 1.995)" fill="#96999f" stroke="#96999f" stroke-miterlimit="10" stroke-width="0.4"/>
</svg>
