<svg id="star" xmlns="http://www.w3.org/2000/svg" width="16" height="16" viewBox="0 0 16 16">
    <g id="star-2" data-name="star" transform="translate(1.333 1.333)">
        <path id="Path" d="M13.3,5.039a.714.714,0,0,0-.61-.508L8.84,4.165,7.318.449a.7.7,0,0,0-1.3,0L4.493,4.165.644,4.53a.716.716,0,0,0-.609.508.76.76,0,0,0,.207.786L3.151,8.486l-.858,3.943a.756.756,0,0,0,.276.763.68.68,0,0,0,.778.035l3.32-2.07,3.318,2.07a.682.682,0,0,0,.779-.035.756.756,0,0,0,.276-.763l-.858-3.943,2.909-2.662A.761.761,0,0,0,13.3,5.039Z" transform="translate(0)" fill="#ffc107"/>
    </g>
</svg>
