<svg xmlns="http://www.w3.org/2000/svg" width="19.958" height="19.958" viewBox="0 0 19.958 19.958">
    <path id="Combined_Shape" data-name="Combined Shape" d="M8.87,18.85V17.741a1.109,1.109,0,1,1,2.218,0V18.85a1.109,1.109,0,1,1-2.218,0ZM2.9,17.035a1.109,1.109,0,0,1,.028-1.568l.784-.784.027-.027a1.109,1.109,0,1,1,1.541,1.595l-.784.784-.028.027A1.109,1.109,0,0,1,2.9,17.035Zm12.572,0-.784-.784a1.109,1.109,0,1,1,1.568-1.568l.784.784a1.109,1.109,0,0,1-1.568,1.568ZM5.544,9.979a4.435,4.435,0,1,1,4.435,4.435A4.441,4.441,0,0,1,5.544,9.979Zm2.218,0A2.218,2.218,0,1,0,9.979,7.762,2.22,2.22,0,0,0,7.762,9.979Zm9.979,1.109a1.109,1.109,0,1,1,0-2.218H18.85a1.109,1.109,0,1,1,0,2.218Zm-16.632,0a1.109,1.109,0,1,1,0-2.218H2.218a1.109,1.109,0,0,1,0,2.218ZM14.657,5.275a1.109,1.109,0,0,1,.027-1.568l.784-.784a1.109,1.109,0,0,1,1.568,1.568l-.784.784-.027.027a1.11,1.11,0,0,1-1.568-.027Zm-10.949,0-.784-.784A1.109,1.109,0,0,1,4.491,2.923l.784.784.027.027A1.109,1.109,0,0,1,3.707,5.275ZM8.87,2.218V1.109a1.109,1.109,0,1,1,2.218,0V2.218a1.109,1.109,0,1,1-2.218,0Z" fill="#f86d36"/>
</svg>
